<svg width="109" height="85" viewBox="0 0 109 85" fill="none" xmlns="http://www.w3.org/2000/svg">
<path fill-rule="evenodd" clip-rule="evenodd" d="M29.887 59.5376V50.5875H45.6546C45.9835 50.5875 46.3058 50.6098 46.6285 50.6322C46.6661 50.6348 46.7037 50.6374 46.7413 50.6399L44.4624 55.0626H34.392V59.5376C34.392 65.7065 39.4444 70.7253 45.6546 70.7253H46.7809H56.9172V66.2503C56.9172 61.359 53.721 57.2373 49.3106 55.7225L46.8205 50.6443C54.9701 51.2417 61.4222 58.0072 61.4222 66.2503V70.7253C61.4222 73.1933 59.4017 75.2004 56.9172 75.2004H45.6546C36.9621 75.2004 29.887 68.1723 29.887 59.5376ZM85.0341 50.6443C85.0409 50.6331 85.0737 50.5875 85.0737 50.5875L85.1133 50.6399C85.1509 50.6374 85.1885 50.6348 85.2261 50.6322C85.5487 50.6098 85.8711 50.5875 86.2 50.5875H101.968V59.5376C101.968 68.1723 94.8924 75.2004 86.2 75.2004H74.9374C72.4528 75.2004 70.4323 73.1933 70.4323 70.7253V66.2503C70.4323 58.0072 76.8845 51.2417 85.0341 50.6443ZM97.4626 55.0626H87.3922C87.9824 56.6624 88.4525 58.5867 88.4525 60.6564C88.4525 66.2167 85.0737 70.7253 85.0737 70.7253C85.0737 70.7253 81.6949 66.2167 81.6949 60.6564C81.6949 58.853 82.0642 57.1858 82.544 55.7225C78.1336 57.2373 74.9374 61.359 74.9374 66.2503V70.7253H85.0737H86.2C92.4102 70.7253 97.4626 65.7065 97.4626 59.5376V55.0626Z" fill="#C5E1E6"/>
<path d="M46.8205 50.6443C46.8137 50.6331 46.7809 50.5875 46.7809 50.5875L46.7413 50.6399L44.4624 55.0626C43.8722 56.6624 43.4021 58.5867 43.4021 60.6564C43.4021 66.2167 46.7809 70.7253 46.7809 70.7253C46.7809 70.7253 50.1596 66.2167 50.1596 60.6564C50.1596 58.853 49.7903 57.1858 49.3106 55.7225L46.8205 50.6443Z" fill="#C5E1E6"/>
<path d="M10.4077 33.9645C7.66516 33.9645 5.54376 33.2613 4.04355 31.8548C2.54333 30.4249 1.73462 28.4794 1.61742 26.0181L1.58226 24.471L1.61742 22.9239C1.73462 20.486 2.55505 18.5522 4.07871 17.1223C5.60237 15.6924 7.71204 14.9774 10.4077 14.9774C13.1034 14.9774 15.2131 15.6924 16.7368 17.1223C18.2604 18.5522 19.0809 20.486 19.1981 22.9239C19.2215 23.2052 19.2332 23.7209 19.2332 24.471C19.2332 25.2211 19.2215 25.7368 19.1981 26.0181C19.0809 28.4794 18.2722 30.4249 16.7719 31.8548C15.2717 33.2613 13.1503 33.9645 10.4077 33.9645ZM10.4077 30.4835C11.6501 30.4835 12.6112 30.0968 13.291 29.3232C13.9708 28.5262 14.3458 27.3659 14.4161 25.8423C14.4396 25.6078 14.4513 25.1508 14.4513 24.471C14.4513 23.7912 14.4396 23.3341 14.4161 23.0997C14.3458 21.576 13.9708 20.4274 13.291 19.6539C12.6112 18.8569 11.6501 18.4584 10.4077 18.4584C9.16538 18.4584 8.2043 18.8569 7.52452 19.6539C6.84473 20.4274 6.46968 21.576 6.39936 23.0997L6.36419 24.471L6.39936 25.8423C6.46968 27.3659 6.84473 28.5262 7.52452 29.3232C8.2043 30.0968 9.16538 30.4835 10.4077 30.4835ZM23.9729 33.6129C23.7384 33.6129 23.5392 33.5309 23.3751 33.3668C23.211 33.2027 23.129 33.0034 23.129 32.769V16.1729C23.129 15.9385 23.211 15.7392 23.3751 15.5752C23.5392 15.4111 23.7384 15.329 23.9729 15.329H26.8561C27.0905 15.329 27.2897 15.4111 27.4538 15.5752C27.6179 15.7392 27.7 15.9385 27.7 16.1729V17.6145C29.083 15.8565 31.0403 14.9774 33.5719 14.9774C35.7284 14.9774 37.4396 15.6924 38.7054 17.1223C39.9712 18.5287 40.6041 20.4509 40.6041 22.8887V32.769C40.6041 33.0034 40.5221 33.2027 40.358 33.3668C40.2174 33.5309 40.0181 33.6129 39.7603 33.6129H36.6661C36.4317 33.6129 36.2324 33.5309 36.0683 33.3668C35.9043 33.2027 35.8222 33.0034 35.8222 32.769V23.0997C35.8222 21.7167 35.4823 20.6501 34.8025 19.9C34.1462 19.1265 33.1851 18.7397 31.9193 18.7397C30.6769 18.7397 29.6924 19.1265 28.9658 19.9C28.2625 20.6735 27.9109 21.7401 27.9109 23.0997V32.769C27.9109 33.0034 27.8289 33.2027 27.6648 33.3668C27.5241 33.5309 27.3249 33.6129 27.0671 33.6129H23.9729ZM45.9495 33.6129C45.7151 33.6129 45.5158 33.5309 45.3517 33.3668C45.1877 33.2027 45.1056 33.0034 45.1056 32.769V9.49226C45.1056 9.23441 45.1877 9.03516 45.3517 8.89452C45.5158 8.73043 45.7151 8.64839 45.9495 8.64839H48.8679C49.1257 8.64839 49.325 8.73043 49.4656 8.89452C49.6297 9.03516 49.7117 9.23441 49.7117 9.49226V32.769C49.7117 33.0034 49.6297 33.2027 49.4656 33.3668C49.325 33.5309 49.1257 33.6129 48.8679 33.6129H45.9495ZM55.0791 12.3052C54.8447 12.3052 54.6454 12.2231 54.4813 12.059C54.3172 11.8949 54.2352 11.6957 54.2352 11.4613V8.92968C54.2352 8.69527 54.3172 8.49602 54.4813 8.33194C54.6454 8.16785 54.8447 8.08581 55.0791 8.08581H58.2787C58.5131 8.08581 58.7124 8.16785 58.8765 8.33194C59.064 8.49602 59.1578 8.69527 59.1578 8.92968V11.4613C59.1578 11.6957 59.0757 11.8949 58.9116 12.059C58.7476 12.2231 58.5366 12.3052 58.2787 12.3052H55.0791ZM55.2197 33.6129C54.9853 33.6129 54.7861 33.5309 54.622 33.3668C54.4579 33.2027 54.3758 33.0034 54.3758 32.769V16.1729C54.3758 15.9385 54.4579 15.7392 54.622 15.5752C54.7861 15.4111 54.9853 15.329 55.2197 15.329H58.1381C58.3959 15.329 58.5952 15.4111 58.7358 15.5752C58.8999 15.7158 58.982 15.9151 58.982 16.1729V32.769C58.982 33.0034 58.8999 33.2027 58.7358 33.3668C58.5952 33.5309 58.3959 33.6129 58.1381 33.6129H55.2197ZM64.4907 33.6129C64.2563 33.6129 64.0571 33.5309 63.893 33.3668C63.7289 33.2027 63.6469 33.0034 63.6469 32.769V16.1729C63.6469 15.9385 63.7289 15.7392 63.893 15.5752C64.0571 15.4111 64.2563 15.329 64.4907 15.329H67.374C67.6084 15.329 67.8076 15.4111 67.9717 15.5752C68.1358 15.7392 68.2178 15.9385 68.2178 16.1729V17.6145C69.6009 15.8565 71.5582 14.9774 74.0898 14.9774C76.2463 14.9774 77.9575 15.6924 79.2233 17.1223C80.4891 18.5287 81.122 20.4509 81.122 22.8887V32.769C81.122 33.0034 81.04 33.2027 80.8759 33.3668C80.7353 33.5309 80.536 33.6129 80.2782 33.6129H77.184C76.9496 33.6129 76.7503 33.5309 76.5862 33.3668C76.4221 33.2027 76.3401 33.0034 76.3401 32.769V23.0997C76.3401 21.7167 76.0002 20.6501 75.3204 19.9C74.6641 19.1265 73.703 18.7397 72.4372 18.7397C71.1948 18.7397 70.2103 19.1265 69.4837 19.9C68.7804 20.6735 68.4288 21.7401 68.4288 23.0997V32.769C68.4288 33.0034 68.3468 33.2027 68.1827 33.3668C68.042 33.5309 67.8428 33.6129 67.5849 33.6129H64.4907ZM93.4645 33.9645C90.8625 33.9645 88.788 33.2144 87.2409 31.7142C85.7173 30.1905 84.9086 28.0574 84.8148 25.3148L84.7796 24.4358L84.8148 23.5568C84.932 20.8845 85.7524 18.7866 87.2761 17.2629C88.8232 15.7392 90.886 14.9774 93.4645 14.9774C96.2305 14.9774 98.3636 15.8213 99.8638 17.509C101.387 19.1968 102.149 21.4471 102.149 24.26V24.9984C102.149 25.2328 102.067 25.432 101.903 25.5961C101.739 25.7602 101.528 25.8423 101.27 25.8423H89.5967V26.1235C89.6436 27.4128 89.9952 28.5028 90.6516 29.3935C91.3314 30.2609 92.2573 30.6945 93.4293 30.6945C94.8123 30.6945 95.9258 30.1554 96.7696 29.0771C96.9806 28.8192 97.1447 28.6552 97.2619 28.5848C97.4025 28.5145 97.6018 28.4794 97.8596 28.4794H100.884C101.094 28.4794 101.27 28.5497 101.411 28.6903C101.575 28.8075 101.657 28.9599 101.657 29.1474C101.657 29.71 101.317 30.3781 100.637 31.1516C99.981 31.9017 99.0317 32.5581 97.7893 33.1206C96.5469 33.6832 95.1053 33.9645 93.4645 33.9645ZM97.3674 22.8887V22.7832C97.3674 21.4002 97.0158 20.2868 96.3125 19.4429C95.6328 18.599 94.6834 18.1771 93.4645 18.1771C92.2455 18.1771 91.2962 18.599 90.6164 19.4429C89.9366 20.2868 89.5967 21.4002 89.5967 22.7832V22.8887H97.3674Z" fill="#0D444D"/>
<path d="M2.21516 75.8064C1.95731 75.8064 1.74634 75.7244 1.58226 75.5603C1.44161 75.3962 1.37129 75.1853 1.37129 74.9274V72.4661C1.37129 72.0676 1.45333 71.7629 1.61742 71.5519C1.78151 71.3175 1.87527 71.1886 1.89871 71.1652L14.1348 55.3426H2.56677C2.33237 55.3426 2.13312 55.2605 1.96903 55.0964C1.80495 54.9324 1.7229 54.7331 1.7229 54.4987V52.0726C1.7229 51.8147 1.79323 51.6038 1.93387 51.4397C2.09796 51.2756 2.30892 51.1935 2.56677 51.1935H19.3739C19.6317 51.1935 19.8427 51.2756 20.0068 51.4397C20.1709 51.6038 20.2529 51.8147 20.2529 52.0726V54.4987C20.2529 54.9206 20.1005 55.3309 19.7958 55.7294L7.80581 71.6223H19.7606C20.0185 71.6223 20.2295 71.7043 20.3935 71.8684C20.5576 72.0325 20.6397 72.2434 20.6397 72.5013V74.9626C20.6397 75.2204 20.5576 75.4314 20.3935 75.5955C20.2295 75.7361 20.0185 75.8064 19.7606 75.8064H2.21516Z" fill="#0D444D"/>
</svg>
